<svg xmlns="http://www.w3.org/2000/svg" viewBox="0 0 375 300" width="375" height="300">
  <defs>
    <clipPath id="logo-clip-1"><path d="M 167 119 L 235 119 L 235 188 L 167 188 Z"/></clipPath>
    <clipPath id="logo-clip-2"><path d="M 140 93 L 208 93 L 208 161 L 140 161 Z"/></clipPath>
  </defs>
  
  <!-- Logo: UTKAL letters -->
  <g clip-path="url(#logo-clip-1)">
    <path fill="#ffffff" d="M 196.45 128.81 L 195.80 128.81 C 189.36 128.98 184.39 131.48 181.06 135.81 C 177.53 140.38 175.66 147.07 175.70 155.21 L 175.72 156.41 L 175.74 156.50 L 175.74 178.85 L 193.21 178.85 C 194.88 178.85 196.38 178.16 197.49 177.07 C 198.59 175.97 199.28 174.45 199.28 172.78 L 199.28 159 L 205.39 152.20 L 225.95 152.20 L 225.95 134.71 C 225.95 133.06 225.26 131.54 224.16 130.43 C 223.07 129.33 221.55 128.64 219.88 128.64 L 210.37 128.64 L 210.37 119.99 L 219.88 119.99 C 223.91 119.99 227.61 121.64 230.26 124.32 C 232.93 126.99 234.58 130.66 234.58 134.69 L 234.58 160.79 L 209.21 160.79 L 207.91 162.25 L 207.91 172.78 C 207.91 176.84 206.25 180.50 203.58 183.18 C 200.91 185.85 197.24 187.5 193.21 187.5 L 167.09 187.5 L 167.09 156.50 L 167.11 156.50 L 167.09 155.21 C 167.05 145.13 169.53 136.63 174.26 130.54 C 179.18 124.16 186.41 120.45 195.61 120.22 L 196.36 120.20 Z"/>
  </g>
  <g clip-path="url(#logo-clip-2)">
    <path fill="#c1ff72" d="M 178.54 152.03 L 179.20 152.03 C 185.64 151.85 190.61 149.36 193.94 145.03 C 197.47 140.46 199.34 133.77 199.30 125.62 L 199.28 124.43 L 199.26 124.34 L 199.26 101.99 L 181.79 101.99 C 180.12 101.99 178.62 102.68 177.51 103.77 C 176.41 104.87 175.72 106.39 175.72 108.06 L 175.72 121.84 L 169.63 128.64 L 149.07 128.64 L 149.07 146.13 C 149.07 147.78 149.76 149.30 150.86 150.41 C 151.95 151.51 153.47 152.20 155.14 152.20 L 164.63 152.20 L 164.63 160.85 L 155.12 160.85 C 151.09 160.85 147.39 159.20 144.74 156.52 C 142.07 153.85 140.42 150.18 140.42 146.14 L 140.42 120.03 L 165.79 120.03 L 167.09 118.57 L 167.09 108.04 C 167.09 103.98 168.75 100.32 171.41 97.64 C 174.07 94.99 177.76 93.34 181.79 93.34 L 207.91 93.34 L 207.91 124.34 L 207.89 124.34 L 207.91 125.62 C 207.95 135.71 205.47 144.20 200.74 150.30 C 195.82 156.68 188.59 160.39 179.39 160.62 L 178.64 160.64 Z"/>
  </g>
  
  <!-- Company Name: UTKAL GENOMICS PRIVATE LIMITED -->
  <g transform="translate(33, 191)">
    <g fill="#ffffff">
      <g transform="translate(0.33, 31.40)"><path d="M 12.84 0.39 C 9.58 0.39 7.05 -0.51 5.23 -2.31 C 3.42 -4.11 2.52 -6.69 2.52 -10.05 L 2.52 -22.83 L 7.80 -22.83 L 7.80 -10.23 C 7.80 -6.15 9.49 -4.11 12.88 -4.11 C 14.53 -4.11 15.79 -4.60 16.66 -5.59 C 17.53 -6.58 17.97 -8.13 17.97 -10.23 L 17.97 -22.83 L 23.19 -22.83 L 23.19 -10.05 C 23.19 -6.69 22.27 -4.11 20.45 -2.31 C 18.64 -0.51 16.10 0.39 12.84 0.39 Z"/></g>
      <g transform="translate(26.01, 31.40)"><path d="M 7.44 -18.52 L 0.13 -18.52 L 0.13 -22.83 L 20.02 -22.83 L 20.02 -18.52 L 12.72 -18.52 L 12.72 0 L 7.44 0 Z"/></g>
      <g transform="translate(46.16, 31.40)"><path d="M 11.02 -8.97 L 7.95 -5.77 L 7.95 0 L 2.70 0 L 2.70 -22.83 L 7.95 -22.83 L 7.95 -12.16 L 18.06 -22.83 L 23.94 -22.83 L 14.48 -12.66 L 24.48 0 L 18.33 0 Z"/></g>
      <g transform="translate(70.29, 31.40)"><path d="M 17.73 -4.89 L 7.14 -4.89 L 5.13 0 L -0.30 0 L 9.88 -22.83 L 15.09 -22.83 L 25.31 0 L 19.77 0 Z M 16.08 -8.91 L 12.45 -17.64 L 8.84 -8.91 Z"/></g>
      <g transform="translate(95.26, 31.40)"><path d="M 2.70 -22.83 L 7.98 -22.83 L 7.98 -4.30 L 19.44 -4.30 L 19.44 0 L 2.70 0 Z"/></g>
      <g transform="translate(124.17, 31.40)"><path d="M 18.13 -11.77 L 22.95 -11.77 L 22.95 -2.52 C 21.71 -1.58 20.27 -0.86 18.64 -0.36 C 17.02 0.14 15.38 0.39 13.73 0.39 C 11.36 0.39 9.22 -0.11 7.33 -1.13 C 5.44 -2.13 3.96 -3.54 2.88 -5.33 C 1.80 -7.12 1.27 -9.14 1.27 -11.41 C 1.27 -13.68 1.80 -15.71 2.88 -17.50 C 3.96 -19.29 5.45 -20.69 7.36 -21.70 C 9.27 -22.71 11.43 -23.22 13.83 -23.22 C 15.83 -23.22 17.64 -22.88 19.27 -22.20 C 20.90 -21.54 22.27 -20.55 23.38 -19.27 L 19.98 -16.14 C 18.36 -17.86 16.39 -18.72 14.09 -18.72 C 12.63 -18.72 11.34 -18.41 10.20 -17.80 C 9.08 -17.19 8.20 -16.33 7.56 -15.22 C 6.94 -14.11 6.63 -12.84 6.63 -11.41 C 6.63 -10 6.94 -8.74 7.56 -7.63 C 8.20 -6.52 9.07 -5.66 10.19 -5.03 C 11.31 -4.41 12.59 -4.11 14.02 -4.11 C 15.55 -4.11 16.91 -4.44 18.13 -5.09 Z"/></g>
      <g transform="translate(149.31, 31.40)"><path d="M 20.38 -4.23 L 20.38 0 L 2.70 0 L 2.70 -22.83 L 19.95 -22.83 L 19.95 -18.59 L 7.95 -18.59 L 7.95 -13.63 L 18.56 -13.63 L 18.56 -9.52 L 7.95 -9.52 L 7.95 -4.23 Z"/></g>
      <g transform="translate(171.18, 31.40)"><path d="M 23.64 -22.83 L 23.64 0 L 19.31 0 L 7.92 -13.86 L 7.92 0 L 2.70 0 L 2.70 -22.83 L 7.08 -22.83 L 18.42 -8.97 L 18.42 -22.83 Z"/></g>
      <g transform="translate(197.53, 31.40)"><path d="M 13.77 0.39 C 11.39 0.39 9.25 -0.12 7.34 -1.14 C 5.45 -2.16 3.96 -3.57 2.88 -5.36 C 1.80 -7.15 1.27 -9.16 1.27 -11.41 C 1.27 -13.64 1.80 -15.66 2.88 -17.45 C 3.96 -19.25 5.45 -20.66 7.34 -21.69 C 9.25 -22.71 11.39 -23.22 13.77 -23.22 C 16.13 -23.22 18.25 -22.71 20.14 -21.69 C 22.04 -20.66 23.52 -19.25 24.61 -17.45 C 25.70 -15.66 26.25 -13.64 26.25 -11.41 C 26.25 -9.16 25.70 -7.15 24.61 -5.36 C 23.52 -3.57 22.04 -2.16 20.14 -1.14 C 18.25 -0.12 16.13 0.39 13.77 0.39 Z M 13.77 -4.11 C 15.11 -4.11 16.32 -4.41 17.41 -5.03 C 18.50 -5.66 19.35 -6.52 19.97 -7.63 C 20.59 -8.74 20.91 -10 20.91 -11.41 C 20.91 -12.82 20.59 -14.08 19.97 -15.19 C 19.35 -16.30 18.50 -17.16 17.41 -17.78 C 16.32 -18.41 15.11 -18.72 13.77 -18.72 C 12.41 -18.72 11.19 -18.41 10.11 -17.78 C 9.02 -17.16 8.17 -16.30 7.55 -15.19 C 6.93 -14.08 6.63 -12.82 6.63 -11.41 C 6.63 -10 6.93 -8.74 7.55 -7.63 C 8.17 -6.52 9.02 -5.66 10.11 -5.03 C 11.19 -4.41 12.41 -4.11 13.77 -4.11 Z"/></g>
      <g transform="translate(225.04, 31.40)"><path d="M 23.48 0 L 23.45 -13.70 L 16.73 -2.41 L 14.34 -2.41 L 7.66 -13.41 L 7.66 0 L 2.70 0 L 2.70 -22.83 L 7.08 -22.83 L 15.63 -8.64 L 24.03 -22.83 L 28.38 -22.83 L 28.44 0 Z"/></g>
      <g transform="translate(256.17, 31.40)"><path d="M 2.70 -22.83 L 7.98 -22.83 L 7.98 0 L 2.70 0 Z"/></g>
      <g transform="translate(266.87, 31.40)"><path d="M 13.63 0.39 C 11.30 0.39 9.20 -0.11 7.31 -1.13 C 5.44 -2.13 3.96 -3.54 2.88 -5.33 C 1.80 -7.12 1.27 -9.14 1.27 -11.41 C 1.27 -13.68 1.80 -15.71 2.88 -17.50 C 3.96 -19.29 5.44 -20.69 7.31 -21.70 C 9.20 -22.71 11.31 -23.22 13.66 -23.22 C 15.63 -23.22 17.42 -22.87 19.02 -22.17 C 20.62 -21.47 21.97 -20.47 23.06 -19.17 L 19.66 -16.05 C 18.11 -17.83 16.20 -18.72 13.92 -18.72 C 12.50 -18.72 11.24 -18.41 10.14 -17.78 C 9.04 -17.16 8.17 -16.30 7.55 -15.19 C 6.93 -14.08 6.63 -12.82 6.63 -11.41 C 6.63 -10 6.93 -8.74 7.55 -7.63 C 8.17 -6.52 9.04 -5.66 10.14 -5.03 C 11.24 -4.41 12.50 -4.11 13.92 -4.11 C 16.20 -4.11 18.11 -5.01 19.66 -6.81 L 23.06 -3.69 C 21.97 -2.36 20.61 -1.35 19.00 -0.66 C 17.39 0.04 15.60 0.39 13.63 0.39 Z"/></g>
      <g transform="translate(290.76, 31.40)"><path d="M 10.20 0.39 C 8.40 0.39 6.66 0.14 4.97 -0.34 C 3.29 -0.83 1.94 -1.47 0.91 -2.25 L 2.70 -6.23 C 3.68 -5.52 4.84 -4.94 6.19 -4.50 C 7.54 -4.06 8.89 -3.84 10.23 -3.84 C 11.73 -3.84 12.84 -4.07 13.56 -4.52 C 14.28 -4.96 14.64 -5.55 14.64 -6.30 C 14.64 -6.84 14.43 -7.29 14.00 -7.64 C 13.58 -8.00 13.04 -8.30 12.38 -8.52 C 11.71 -8.73 10.81 -8.97 9.69 -9.23 C 7.95 -9.64 6.52 -10.05 5.41 -10.47 C 4.30 -10.88 3.35 -11.55 2.56 -12.45 C 1.77 -13.37 1.38 -14.59 1.38 -16.11 C 1.38 -17.43 1.73 -18.63 2.44 -19.70 C 3.16 -20.79 4.24 -21.64 5.69 -22.27 C 7.13 -22.90 8.90 -23.22 10.98 -23.22 C 12.44 -23.22 13.86 -23.04 15.25 -22.69 C 16.64 -22.34 17.86 -21.85 18.91 -21.20 L 17.28 -17.19 C 15.18 -18.38 13.07 -18.98 10.95 -18.98 C 9.47 -18.98 8.38 -18.74 7.67 -18.27 C 6.97 -17.79 6.63 -17.16 6.63 -16.38 C 6.63 -15.59 7.03 -15.01 7.84 -14.63 C 8.66 -14.24 9.90 -13.86 11.58 -13.50 C 13.32 -13.08 14.74 -12.66 15.84 -12.25 C 16.96 -11.84 17.91 -11.19 18.70 -10.30 C 19.49 -9.41 19.89 -8.21 19.89 -6.69 C 19.89 -5.38 19.52 -4.19 18.80 -3.11 C 18.07 -2.04 16.97 -1.18 15.52 -0.55 C 14.07 0.08 12.30 0.39 10.20 0.39 Z"/></g>
    </g>
    
    <!-- PRIVATE LIMITED text -->
    <g transform="translate(117, 230)" fill="#ffffff">
      <g transform="translate(1.31, 12.52)"><path d="M 8.25 -1.72 L 8.25 0 L 1.09 0 L 1.09 -9.25 L 8.08 -9.25 L 8.08 -7.53 L 3.22 -7.53 L 3.22 -5.52 L 7.52 -5.52 L 7.52 -3.86 L 3.22 -3.86 L 3.22 -1.72 Z"/></g>
      <g transform="translate(17.28, 12.52)"><path d="M 4.13 0.16 C 3.39 0.16 2.69 0.05 2.00 -0.14 C 1.32 -0.34 0.78 -0.59 0.38 -0.91 L 1.09 -2.52 C 1.49 -2.23 1.96 -2.00 2.50 -1.83 C 3.05 -1.65 3.60 -1.56 4.14 -1.56 C 4.75 -1.56 5.20 -1.65 5.48 -1.83 C 5.77 -2.00 5.92 -2.24 5.92 -2.55 C 5.92 -2.77 5.83 -2.95 5.66 -3.09 C 5.49 -3.24 5.27 -3.35 5.00 -3.44 C 4.74 -3.53 4.38 -3.63 3.92 -3.73 C 3.21 -3.90 2.63 -4.07 2.19 -4.23 C 1.74 -4.40 1.35 -4.66 1.03 -5.03 C 0.71 -5.41 0.55 -5.90 0.55 -6.52 C 0.55 -7.05 0.69 -7.55 0.98 -7.98 C 1.27 -8.42 1.71 -8.77 2.30 -9.02 C 2.89 -9.27 3.61 -9.41 4.45 -9.41 C 5.04 -9.41 5.61 -9.33 6.17 -9.19 C 6.74 -9.05 7.24 -8.85 7.66 -8.58 L 7.00 -6.95 C 6.14 -7.44 5.29 -7.69 4.44 -7.69 C 3.83 -7.69 3.39 -7.59 3.11 -7.39 C 2.83 -7.20 2.69 -6.95 2.69 -6.63 C 2.69 -6.31 2.85 -6.08 3.17 -5.92 C 3.50 -5.77 4.01 -5.61 4.69 -5.47 C 5.39 -5.30 5.97 -5.13 6.42 -4.97 C 6.87 -4.80 7.25 -4.54 7.56 -4.17 C 7.88 -3.80 8.05 -3.32 8.05 -2.70 C 8.05 -2.18 7.90 -1.70 7.61 -1.27 C 7.32 -0.83 6.88 -0.48 6.28 -0.22 C 5.70 0.03 4.98 0.16 4.13 0.16 Z"/></g>
      <g transform="translate(32.83, 12.52)"><path d="M 3.02 -7.5 L 0.05 -7.5 L 0.05 -9.25 L 8.11 -9.25 L 8.11 -7.5 L 5.16 -7.5 L 5.16 0 L 3.02 0 Z"/></g>
      <g transform="translate(48.11, 12.52)"><path d="M 1.09 -9.25 L 5.30 -9.25 C 6.30 -9.25 7.18 -9.05 7.95 -8.67 C 8.72 -8.29 9.32 -7.74 9.75 -7.05 C 10.18 -6.35 10.39 -5.54 10.39 -4.63 C 10.39 -3.70 10.18 -2.88 9.75 -2.19 C 9.32 -1.50 8.72 -0.96 7.95 -0.58 C 7.18 -0.19 6.30 0 5.30 0 L 1.09 0 Z M 5.19 -1.75 C 6.11 -1.75 6.85 -2.00 7.39 -2.52 C 7.94 -3.04 8.22 -3.74 8.22 -4.63 C 8.22 -5.50 7.94 -6.19 7.39 -6.70 C 6.85 -7.22 6.11 -7.48 5.19 -7.48 L 3.23 -7.48 L 3.23 -1.75 Z"/></g>
      <g transform="translate(66.13, 12.52)"><path d="M 1.73 -4.63 C 1.37 -4.63 1.06 -4.75 0.81 -5.00 C 0.57 -5.25 0.45 -5.55 0.45 -5.92 C 0.45 -6.30 0.57 -6.60 0.81 -6.83 C 1.06 -7.07 1.37 -7.19 1.73 -7.19 C 2.09 -7.19 2.39 -7.07 2.64 -6.83 C 2.89 -6.60 3.02 -6.30 3.02 -5.92 C 3.02 -5.55 2.89 -5.25 2.64 -5.00 C 2.39 -4.75 2.09 -4.63 1.73 -4.63 Z M 1.73 0.11 C 1.37 0.11 1.06 -0.02 0.81 -0.27 C 0.57 -0.52 0.45 -0.82 0.45 -1.19 C 0.45 -1.56 0.57 -1.86 0.81 -2.09 C 1.06 -2.33 1.37 -2.45 1.73 -2.45 C 2.09 -2.45 2.39 -2.33 2.64 -2.09 C 2.89 -1.86 3.02 -1.56 3.02 -1.19 C 3.02 -0.82 2.89 -0.52 2.64 -0.27 C 2.39 -0.02 2.09 0.11 1.73 0.11 Z"/></g>
      <g transform="translate(87.58, 12.52)"><path d="M 7.42 -1.75 L 7.42 0 L 0.44 0 L 0.44 -1.39 L 4.00 -4.75 C 4.38 -5.11 4.63 -5.43 4.77 -5.69 C 4.90 -5.95 4.97 -6.20 4.97 -6.45 C 4.97 -6.83 4.84 -7.11 4.59 -7.31 C 4.34 -7.51 3.97 -7.61 3.48 -7.61 C 3.08 -7.61 2.71 -7.53 2.39 -7.38 C 2.07 -7.22 1.80 -6.99 1.58 -6.69 L 0.02 -7.69 C 0.37 -8.22 0.86 -8.63 1.50 -8.94 C 2.13 -9.25 2.86 -9.41 3.69 -9.41 C 4.38 -9.41 4.97 -9.29 5.48 -9.06 C 6.00 -8.84 6.41 -8.52 6.69 -8.11 C 6.97 -7.70 7.11 -7.22 7.11 -6.67 C 7.11 -6.17 7.00 -5.70 6.80 -5.25 C 6.59 -4.81 6.18 -4.31 5.58 -3.75 L 3.45 -1.75 Z"/></g>
      <g transform="translate(102.49, 12.52)"><path d="M 4.47 0.16 C 3.71 0.16 3.02 -0.03 2.42 -0.41 C 1.83 -0.79 1.36 -1.34 1.02 -2.05 C 0.68 -2.77 0.52 -3.63 0.52 -4.63 C 0.52 -5.61 0.68 -6.47 1.02 -7.19 C 1.36 -7.91 1.83 -8.45 2.42 -8.83 C 3.02 -9.21 3.71 -9.41 4.47 -9.41 C 5.24 -9.41 5.92 -9.21 6.52 -8.83 C 7.12 -8.45 7.59 -7.91 7.92 -7.19 C 8.27 -6.47 8.44 -5.61 8.44 -4.63 C 8.44 -3.63 8.27 -2.77 7.92 -2.05 C 7.59 -1.34 7.12 -0.79 6.52 -0.41 C 5.92 -0.03 5.24 0.16 4.47 0.16 Z M 4.47 -1.66 C 5.04 -1.66 5.48 -1.89 5.80 -2.38 C 6.12 -2.86 6.28 -3.61 6.28 -4.63 C 6.28 -5.63 6.12 -6.38 5.80 -6.86 C 5.48 -7.35 5.04 -7.59 4.47 -7.59 C 3.91 -7.59 3.48 -7.35 3.16 -6.86 C 2.84 -6.38 2.69 -5.63 2.69 -4.63 C 2.69 -3.61 2.84 -2.86 3.16 -2.38 C 3.48 -1.89 3.91 -1.66 4.47 -1.66 Z"/></g>
      <g transform="translate(118.57, 12.52)"><path d="M 7.42 -1.75 L 7.42 0 L 0.44 0 L 0.44 -1.39 L 4.00 -4.75 C 4.38 -5.11 4.63 -5.43 4.77 -5.69 C 4.90 -5.95 4.97 -6.20 4.97 -6.45 C 4.97 -6.83 4.84 -7.11 4.59 -7.31 C 4.34 -7.51 3.97 -7.61 3.48 -7.61 C 3.08 -7.61 2.71 -7.53 2.39 -7.38 C 2.07 -7.22 1.80 -6.99 1.58 -6.69 L 0.02 -7.69 C 0.37 -8.22 0.86 -8.63 1.50 -8.94 C 2.13 -9.25 2.86 -9.41 3.69 -9.41 C 4.38 -9.41 4.97 -9.29 5.48 -9.06 C 6.00 -8.84 6.41 -8.52 6.69 -8.11 C 6.97 -7.70 7.11 -7.22 7.11 -6.67 C 7.11 -6.17 7.00 -5.70 6.80 -5.25 C 6.59 -4.81 6.18 -4.31 5.58 -3.75 L 3.45 -1.75 Z"/></g>
      <g transform="translate(133.48, 12.52)"><path d="M 8.98 -1.94 L 7.47 -1.94 L 7.47 0 L 5.39 0 L 5.39 -1.94 L 0.41 -1.94 L 0.41 -3.38 L 4.77 -9.25 L 7.02 -9.25 L 2.97 -3.69 L 5.45 -3.69 L 5.45 -5.41 L 7.47 -5.41 L 7.47 -3.69 L 8.98 -3.69 Z"/></g>
    </g>
  </g>
</svg>
